<mxfile host="app.diagrams.net" modified="2021-01-09T16:25:27.253Z" agent="5.0 (Windows)" etag="KL3DMgzUBVH_S9RoXjKj" version="14.1.8" type="github">
  <diagram name="Page-1" id="6133507b-19e7-1e82-6fc7-422aa6c4b21f">
    <mxGraphModel dx="3342" dy="1843" grid="1" gridSize="10" guides="1" tooltips="1" connect="1" arrows="1" fold="1" page="1" pageScale="1" pageWidth="1920" pageHeight="1200" background="#ffffff" math="0" shadow="0">
      <root>
        <mxCell id="0" />
        <mxCell id="1" parent="0" />
        <mxCell id="dY_EHv_pqDZWPDzGT5Ff-44" value="&lt;font style=&quot;font-size: 24px&quot;&gt;User&#39;s PC&lt;/font&gt;" style="rounded=1;whiteSpace=wrap;html=1;shadow=0;glass=0;labelBackgroundColor=none;comic=0;sketch=0;strokeWidth=4;fontSize=44;align=left;fillColor=#9999FF;arcSize=5;labelPosition=center;verticalLabelPosition=middle;verticalAlign=top;spacing=2;spacingLeft=15;spacingTop=-14;" parent="1" vertex="1">
          <mxGeometry x="1180" y="20" width="690" height="1190" as="geometry" />
        </mxCell>
        <mxCell id="pgLa_8-tVWHz4r8XQfHg-1" value="&lt;b&gt;&lt;font style=&quot;font-size: 24px&quot; face=&quot;Courier New&quot;&gt;SimVisionSystem&lt;/font&gt;&lt;/b&gt;" style="rounded=1;whiteSpace=wrap;html=1;shadow=0;glass=0;labelBackgroundColor=none;comic=0;sketch=0;strokeWidth=4;fontSize=44;align=left;arcSize=5;labelPosition=center;verticalLabelPosition=middle;verticalAlign=top;spacing=2;spacingLeft=15;spacingTop=-14;fillColor=#FFFF99;" vertex="1" parent="1">
          <mxGeometry x="1240" y="680" width="570" height="340" as="geometry" />
        </mxCell>
        <mxCell id="dY_EHv_pqDZWPDzGT5Ff-45" value="&lt;font style=&quot;font-size: 24px&quot;&gt;Co-Processor&lt;/font&gt;" style="rounded=1;whiteSpace=wrap;html=1;shadow=0;glass=0;labelBackgroundColor=none;comic=0;sketch=0;strokeWidth=4;fontSize=44;align=left;fillColor=#9999FF;arcSize=5;labelPosition=center;verticalLabelPosition=middle;verticalAlign=top;spacing=2;spacingLeft=15;spacingTop=-14;" parent="1" vertex="1">
          <mxGeometry x="102.5" y="680" width="525" height="340" as="geometry" />
        </mxCell>
        <mxCell id="dY_EHv_pqDZWPDzGT5Ff-43" value="&lt;font style=&quot;font-size: 24px&quot;&gt;RoboRIO&lt;/font&gt;" style="rounded=1;whiteSpace=wrap;html=1;shadow=0;glass=0;labelBackgroundColor=none;comic=0;sketch=0;strokeWidth=4;fontSize=44;align=left;fillColor=#9999FF;arcSize=5;labelPosition=center;verticalLabelPosition=middle;verticalAlign=top;spacing=2;spacingLeft=15;spacingTop=-14;" parent="1" vertex="1">
          <mxGeometry x="105" y="20" width="525" height="610" as="geometry" />
        </mxCell>
        <mxCell id="dY_EHv_pqDZWPDzGT5Ff-1" value="Network Tables" style="rounded=1;whiteSpace=wrap;html=1;shadow=0;glass=0;labelBackgroundColor=none;comic=0;sketch=0;strokeWidth=4;fontSize=41;align=center;" parent="1" vertex="1">
          <mxGeometry x="202.5" y="500" width="330" height="100" as="geometry" />
        </mxCell>
        <mxCell id="dY_EHv_pqDZWPDzGT5Ff-2" value="&lt;b&gt;&lt;font face=&quot;Courier New&quot;&gt;PhotonLib&lt;/font&gt;&lt;/b&gt;" style="rounded=1;whiteSpace=wrap;html=1;shadow=0;glass=0;labelBackgroundColor=none;comic=0;sketch=0;strokeWidth=4;fontSize=41;align=center;" parent="1" vertex="1">
          <mxGeometry x="202.5" y="340" width="330" height="100" as="geometry" />
        </mxCell>
        <mxCell id="dY_EHv_pqDZWPDzGT5Ff-3" value="User Code" style="rounded=1;whiteSpace=wrap;html=1;shadow=0;glass=0;labelBackgroundColor=none;comic=0;sketch=0;strokeWidth=4;fontSize=41;align=center;" parent="1" vertex="1">
          <mxGeometry x="202.5" y="80" width="330" height="180" as="geometry" />
        </mxCell>
        <mxCell id="dY_EHv_pqDZWPDzGT5Ff-4" value="PhotonVision" style="rounded=1;whiteSpace=wrap;html=1;shadow=0;glass=0;labelBackgroundColor=none;comic=0;sketch=0;strokeWidth=4;fontSize=41;align=center;" parent="1" vertex="1">
          <mxGeometry x="202.5" y="730" width="330" height="100" as="geometry" />
        </mxCell>
        <mxCell id="dY_EHv_pqDZWPDzGT5Ff-5" value="Camera" style="rounded=1;whiteSpace=wrap;html=1;shadow=0;glass=0;labelBackgroundColor=none;comic=0;sketch=0;strokeWidth=4;fontSize=41;align=center;" parent="1" vertex="1">
          <mxGeometry x="202.5" y="890" width="330" height="100" as="geometry" />
        </mxCell>
        <mxCell id="dY_EHv_pqDZWPDzGT5Ff-6" value="Physical Environment" style="rounded=1;whiteSpace=wrap;html=1;shadow=0;glass=0;labelBackgroundColor=none;comic=0;sketch=0;strokeWidth=4;fontSize=41;align=center;" parent="1" vertex="1">
          <mxGeometry x="202.5" y="1055" width="330" height="110" as="geometry" />
        </mxCell>
        <mxCell id="dY_EHv_pqDZWPDzGT5Ff-11" value="&lt;b&gt;&lt;font face=&quot;Courier New&quot;&gt;SimPhotonCam&lt;/font&gt;&lt;/b&gt;" style="rounded=1;whiteSpace=wrap;html=1;shadow=0;glass=0;labelBackgroundColor=none;comic=0;sketch=0;strokeWidth=4;fontSize=41;align=center;" parent="1" vertex="1">
          <mxGeometry x="1360" y="730" width="330" height="100" as="geometry" />
        </mxCell>
        <mxCell id="dY_EHv_pqDZWPDzGT5Ff-12" value="Geometry Calculations" style="rounded=1;whiteSpace=wrap;html=1;shadow=0;glass=0;labelBackgroundColor=none;comic=0;sketch=0;strokeWidth=4;fontSize=41;align=center;" parent="1" vertex="1">
          <mxGeometry x="1360" y="890" width="330" height="100" as="geometry" />
        </mxCell>
        <mxCell id="dY_EHv_pqDZWPDzGT5Ff-13" value="Robot Pose" style="rounded=1;whiteSpace=wrap;html=1;shadow=0;glass=0;labelBackgroundColor=none;comic=0;sketch=0;strokeWidth=4;fontSize=41;align=center;" parent="1" vertex="1">
          <mxGeometry x="1240" y="1060" width="190" height="100" as="geometry" />
        </mxCell>
        <mxCell id="dY_EHv_pqDZWPDzGT5Ff-14" value="Target Pose" style="rounded=1;whiteSpace=wrap;html=1;shadow=0;glass=0;labelBackgroundColor=none;comic=0;sketch=0;strokeWidth=4;fontSize=41;align=center;" parent="1" vertex="1">
          <mxGeometry x="1620" y="1060" width="190" height="100" as="geometry" />
        </mxCell>
        <mxCell id="dY_EHv_pqDZWPDzGT5Ff-15" value="System Config" style="rounded=1;whiteSpace=wrap;html=1;shadow=0;glass=0;labelBackgroundColor=none;comic=0;sketch=0;strokeWidth=4;fontSize=41;align=center;" parent="1" vertex="1">
          <mxGeometry x="1430" y="1060" width="190" height="100" as="geometry" />
        </mxCell>
        <mxCell id="dY_EHv_pqDZWPDzGT5Ff-17" value="" style="endArrow=classic;startArrow=classic;html=1;fontSize=44;strokeWidth=4;entryX=0.5;entryY=1;entryDx=0;entryDy=0;exitX=0.5;exitY=0;exitDx=0;exitDy=0;" parent="1" source="dY_EHv_pqDZWPDzGT5Ff-4" target="dY_EHv_pqDZWPDzGT5Ff-1" edge="1">
          <mxGeometry width="50" height="50" relative="1" as="geometry">
            <mxPoint x="364.58000000000004" y="730" as="sourcePoint" />
            <mxPoint x="364.58000000000004" y="630" as="targetPoint" />
          </mxGeometry>
        </mxCell>
        <mxCell id="dY_EHv_pqDZWPDzGT5Ff-18" value="" style="endArrow=classic;startArrow=classic;html=1;fontSize=44;strokeWidth=4;entryX=0.5;entryY=1;entryDx=0;entryDy=0;exitX=0.5;exitY=0;exitDx=0;exitDy=0;" parent="1" source="dY_EHv_pqDZWPDzGT5Ff-1" target="dY_EHv_pqDZWPDzGT5Ff-2" edge="1">
          <mxGeometry width="50" height="50" relative="1" as="geometry">
            <mxPoint x="368" y="500" as="sourcePoint" />
            <mxPoint x="365" y="460" as="targetPoint" />
          </mxGeometry>
        </mxCell>
        <mxCell id="dY_EHv_pqDZWPDzGT5Ff-19" value="" style="endArrow=classic;startArrow=classic;html=1;fontSize=44;strokeWidth=4;entryX=0.5;entryY=1;entryDx=0;entryDy=0;exitX=0.5;exitY=0;exitDx=0;exitDy=0;" parent="1" source="dY_EHv_pqDZWPDzGT5Ff-2" target="dY_EHv_pqDZWPDzGT5Ff-3" edge="1">
          <mxGeometry width="50" height="50" relative="1" as="geometry">
            <mxPoint x="360" y="350" as="sourcePoint" />
            <mxPoint x="360" y="290" as="targetPoint" />
          </mxGeometry>
        </mxCell>
        <mxCell id="dY_EHv_pqDZWPDzGT5Ff-28" value="Network Tables" style="rounded=1;whiteSpace=wrap;html=1;shadow=0;glass=0;labelBackgroundColor=none;comic=0;sketch=0;strokeWidth=4;fontSize=41;align=center;" parent="1" vertex="1">
          <mxGeometry x="1360" y="500" width="330" height="100" as="geometry" />
        </mxCell>
        <mxCell id="dY_EHv_pqDZWPDzGT5Ff-29" value="&lt;b&gt;&lt;font face=&quot;Courier New&quot;&gt;PhotonLib&lt;/font&gt;&lt;/b&gt;" style="rounded=1;whiteSpace=wrap;html=1;shadow=0;glass=0;labelBackgroundColor=none;comic=0;sketch=0;strokeWidth=4;fontSize=41;align=center;" parent="1" vertex="1">
          <mxGeometry x="1360" y="340" width="330" height="100" as="geometry" />
        </mxCell>
        <mxCell id="dY_EHv_pqDZWPDzGT5Ff-30" value="User Code" style="rounded=1;whiteSpace=wrap;html=1;shadow=0;glass=0;labelBackgroundColor=none;comic=0;sketch=0;strokeWidth=4;fontSize=41;align=center;" parent="1" vertex="1">
          <mxGeometry x="1360" y="80" width="330" height="180" as="geometry" />
        </mxCell>
        <mxCell id="dY_EHv_pqDZWPDzGT5Ff-31" value="" style="endArrow=classic;startArrow=classic;html=1;fontSize=44;strokeWidth=4;entryX=0.5;entryY=1;entryDx=0;entryDy=0;exitX=0.5;exitY=0;exitDx=0;exitDy=0;" parent="1" target="dY_EHv_pqDZWPDzGT5Ff-28" edge="1">
          <mxGeometry width="50" height="50" relative="1" as="geometry">
            <mxPoint x="1525" y="730" as="sourcePoint" />
            <mxPoint x="1524.58" y="610" as="targetPoint" />
          </mxGeometry>
        </mxCell>
        <mxCell id="dY_EHv_pqDZWPDzGT5Ff-32" value="" style="endArrow=classic;startArrow=classic;html=1;fontSize=44;strokeWidth=4;" parent="1" edge="1">
          <mxGeometry width="50" height="50" relative="1" as="geometry">
            <mxPoint x="1525" y="500" as="sourcePoint" />
            <mxPoint x="1525" y="440" as="targetPoint" />
          </mxGeometry>
        </mxCell>
        <mxCell id="dY_EHv_pqDZWPDzGT5Ff-33" value="" style="endArrow=classic;startArrow=classic;html=1;fontSize=44;strokeWidth=4;entryX=0.5;entryY=1;entryDx=0;entryDy=0;exitX=0.5;exitY=0;exitDx=0;exitDy=0;" parent="1" source="dY_EHv_pqDZWPDzGT5Ff-29" target="dY_EHv_pqDZWPDzGT5Ff-30" edge="1">
          <mxGeometry width="50" height="50" relative="1" as="geometry">
            <mxPoint x="1520" y="330" as="sourcePoint" />
            <mxPoint x="1520" y="270" as="targetPoint" />
          </mxGeometry>
        </mxCell>
        <mxCell id="dY_EHv_pqDZWPDzGT5Ff-34" value="" style="endArrow=classic;startArrow=classic;html=1;fontSize=44;strokeWidth=4;exitX=0.5;exitY=0;exitDx=0;exitDy=0;entryX=0.5;entryY=1;entryDx=0;entryDy=0;" parent="1" source="dY_EHv_pqDZWPDzGT5Ff-5" target="dY_EHv_pqDZWPDzGT5Ff-4" edge="1">
          <mxGeometry width="50" height="50" relative="1" as="geometry">
            <mxPoint x="364.58" y="900" as="sourcePoint" />
            <mxPoint x="364.58" y="850" as="targetPoint" />
          </mxGeometry>
        </mxCell>
        <mxCell id="dY_EHv_pqDZWPDzGT5Ff-35" value="" style="endArrow=classic;startArrow=none;html=1;fontSize=44;strokeWidth=4;startFill=0;entryX=0.5;entryY=1;entryDx=0;entryDy=0;" parent="1" source="dY_EHv_pqDZWPDzGT5Ff-6" target="dY_EHv_pqDZWPDzGT5Ff-5" edge="1">
          <mxGeometry width="50" height="50" relative="1" as="geometry">
            <mxPoint x="364.5799999999999" y="1050" as="sourcePoint" />
            <mxPoint x="364.5799999999999" y="1000" as="targetPoint" />
          </mxGeometry>
        </mxCell>
        <mxCell id="dY_EHv_pqDZWPDzGT5Ff-36" value="" style="endArrow=classic;startArrow=none;html=1;fontSize=44;strokeWidth=4;startFill=0;entryX=0.25;entryY=1;entryDx=0;entryDy=0;exitX=0.5;exitY=0;exitDx=0;exitDy=0;" parent="1" source="dY_EHv_pqDZWPDzGT5Ff-13" target="dY_EHv_pqDZWPDzGT5Ff-12" edge="1">
          <mxGeometry width="50" height="50" relative="1" as="geometry">
            <mxPoint x="1370.2191304347825" y="1060" as="sourcePoint" />
            <mxPoint x="1370" y="1000" as="targetPoint" />
          </mxGeometry>
        </mxCell>
        <mxCell id="dY_EHv_pqDZWPDzGT5Ff-37" value="" style="endArrow=classic;startArrow=none;html=1;fontSize=44;strokeWidth=4;startFill=0;entryX=0.75;entryY=1;entryDx=0;entryDy=0;exitX=0.5;exitY=0;exitDx=0;exitDy=0;" parent="1" source="dY_EHv_pqDZWPDzGT5Ff-14" target="dY_EHv_pqDZWPDzGT5Ff-12" edge="1">
          <mxGeometry width="50" height="50" relative="1" as="geometry">
            <mxPoint x="1720" y="1040" as="sourcePoint" />
            <mxPoint x="1827.5" y="950" as="targetPoint" />
          </mxGeometry>
        </mxCell>
        <mxCell id="dY_EHv_pqDZWPDzGT5Ff-38" value="" style="endArrow=classic;startArrow=none;html=1;fontSize=44;strokeWidth=4;startFill=0;entryX=0.5;entryY=1;entryDx=0;entryDy=0;exitX=0.5;exitY=0;exitDx=0;exitDy=0;" parent="1" source="dY_EHv_pqDZWPDzGT5Ff-15" target="dY_EHv_pqDZWPDzGT5Ff-12" edge="1">
          <mxGeometry width="50" height="50" relative="1" as="geometry">
            <mxPoint x="1667.5" y="1080" as="sourcePoint" />
            <mxPoint x="1540" y="990" as="targetPoint" />
          </mxGeometry>
        </mxCell>
        <mxCell id="dY_EHv_pqDZWPDzGT5Ff-42" value="" style="endArrow=classic;startArrow=none;html=1;fontSize=44;strokeWidth=4;startFill=0;" parent="1" edge="1">
          <mxGeometry width="50" height="50" relative="1" as="geometry">
            <mxPoint x="1524.7991304347825" y="890" as="sourcePoint" />
            <mxPoint x="1524.58" y="830" as="targetPoint" />
          </mxGeometry>
        </mxCell>
        <mxCell id="pgLa_8-tVWHz4r8XQfHg-2" value="Same for Sim &amp;amp; Real Robot" style="text;html=1;strokeColor=none;fillColor=none;align=center;verticalAlign=middle;whiteSpace=wrap;rounded=0;shadow=0;glass=0;labelBackgroundColor=none;comic=0;sketch=0;fontSize=44;" vertex="1" parent="1">
          <mxGeometry x="720" y="160" width="370" height="170" as="geometry" />
        </mxCell>
        <mxCell id="pgLa_8-tVWHz4r8XQfHg-3" value="Modeled Physics" style="text;html=1;strokeColor=none;fillColor=none;align=center;verticalAlign=middle;whiteSpace=wrap;rounded=0;shadow=0;glass=0;labelBackgroundColor=none;comic=0;sketch=0;fontSize=44;" vertex="1" parent="1">
          <mxGeometry x="940" y="1025" width="190" height="170" as="geometry" />
        </mxCell>
        <mxCell id="pgLa_8-tVWHz4r8XQfHg-4" value="Real Physics" style="text;html=1;strokeColor=none;fillColor=none;align=center;verticalAlign=middle;whiteSpace=wrap;rounded=0;shadow=0;glass=0;labelBackgroundColor=none;comic=0;sketch=0;fontSize=44;" vertex="1" parent="1">
          <mxGeometry x="680" y="1025" width="190" height="170" as="geometry" />
        </mxCell>
        <mxCell id="pgLa_8-tVWHz4r8XQfHg-5" value="" style="endArrow=classic;html=1;strokeWidth=4;fontSize=44;exitX=1;exitY=0.5;exitDx=0;exitDy=0;entryX=0;entryY=0.5;entryDx=0;entryDy=0;" edge="1" parent="1" source="pgLa_8-tVWHz4r8XQfHg-3" target="dY_EHv_pqDZWPDzGT5Ff-13">
          <mxGeometry width="50" height="50" relative="1" as="geometry">
            <mxPoint x="930" y="830" as="sourcePoint" />
            <mxPoint x="980" y="780" as="targetPoint" />
          </mxGeometry>
        </mxCell>
        <mxCell id="pgLa_8-tVWHz4r8XQfHg-6" value="" style="endArrow=classic;html=1;strokeWidth=4;fontSize=44;exitX=0;exitY=0.5;exitDx=0;exitDy=0;entryX=1;entryY=0.5;entryDx=0;entryDy=0;" edge="1" parent="1" source="pgLa_8-tVWHz4r8XQfHg-4" target="dY_EHv_pqDZWPDzGT5Ff-6">
          <mxGeometry width="50" height="50" relative="1" as="geometry">
            <mxPoint x="690" y="1019" as="sourcePoint" />
            <mxPoint x="810" y="1019" as="targetPoint" />
          </mxGeometry>
        </mxCell>
        <mxCell id="pgLa_8-tVWHz4r8XQfHg-7" value="" style="shape=curlyBracket;whiteSpace=wrap;html=1;rounded=1;shadow=0;glass=0;labelBackgroundColor=none;comic=0;sketch=0;strokeWidth=4;fillColor=#FFFF99;fontSize=44;align=left;" vertex="1" parent="1">
          <mxGeometry x="1090" y="60" width="70" height="370" as="geometry" />
        </mxCell>
        <mxCell id="pgLa_8-tVWHz4r8XQfHg-8" value="" style="shape=curlyBracket;whiteSpace=wrap;html=1;rounded=1;shadow=0;glass=0;labelBackgroundColor=none;comic=0;sketch=0;strokeWidth=4;fillColor=#FFFF99;fontSize=44;align=left;rotation=-180;" vertex="1" parent="1">
          <mxGeometry x="650" y="60" width="70" height="370" as="geometry" />
        </mxCell>
      </root>
    </mxGraphModel>
  </diagram>
</mxfile>
